<svg width="637" height="376" fill="none" xmlns="http://www.w3.org/2000/svg"><path d="M110.35 368.75V360l-8-11.9h3.23l6.14 9.19 6.16-9.19h3.23L113 360v8.72l-2.65.03zm17.36.25a7.452 7.452 0 01-7.175-6.104 7.452 7.452 0 014.541-8.254 7.45 7.45 0 018.064 12.168 7.35 7.35 0 01-5.43 2.19zm-3.65-3.84a4.78 4.78 0 003.65 1.52 4.712 4.712 0 001.986-.362 4.706 4.706 0 001.654-1.158 5.64 5.64 0 000-7.44 4.714 4.714 0 00-3.64-1.51 4.757 4.757 0 00-3.65 1.51 5.61 5.61 0 000 7.44zm20.7 3.84a4.995 4.995 0 01-3.87-1.61 6.097 6.097 0 01-1.48-4.29v-8.93h2.5v8.55a4.452 4.452 0 00.88 2.91 2.994 2.994 0 002.4 1.08 3.566 3.566 0 002.9-1.44 6.11 6.11 0 001.15-3.89v-7.21h2.5v14.54h-2.5v-2.24a4.779 4.779 0 01-4.48 2.53zm12.42-.25v-14.54h2.5V357a4.003 4.003 0 011.58-2.15 4.36 4.36 0 012.49-.82 4.86 4.86 0 011.14.12v2.59a3.341 3.341 0 00-1.37-.23 3.499 3.499 0 00-2.68 1.31 5.39 5.39 0 00-1.16 3.69v7.21l-2.5.03zm18.76 0V348.1h2.7v20.65h-2.7zm27.19 0v-8.55a5.002 5.002 0 00-.74-2.89 2.421 2.421 0 00-2.14-1.09 3.456 3.456 0 00-2.83 1.36 6.094 6.094 0 00-1.15 3.73v7.44h-2.5v-8.55a5.101 5.101 0 00-.74-2.91 2.43 2.43 0 00-2.11-1.07 3.488 3.488 0 00-2.91 1.44 6.19 6.19 0 00-1.11 3.88v7.21h-2.5v-14.54h2.5v2.24a4.672 4.672 0 014.4-2.53 4.394 4.394 0 014.47 3.11 4.84 4.84 0 011.87-2.27 5.16 5.16 0 012.9-.84 4.625 4.625 0 013.73 1.6 6.408 6.408 0 011.36 4.3v8.93h-2.5zm13.73.25a6.616 6.616 0 01-2.778-.548 6.612 6.612 0 01-2.292-1.662 8 8 0 010-10.7 6.633 6.633 0 015.07-2.21 6.45 6.45 0 013 .71 5.665 5.665 0 012.14 1.82v-2.24h2.5v14.54H222v-2.24a5.592 5.592 0 01-2.14 1.82 6.336 6.336 0 01-3 .71zm.38-2.29a4.638 4.638 0 003.55-1.52 5.747 5.747 0 000-7.5 5.008 5.008 0 00-3.565-1.494 5.008 5.008 0 00-3.565 1.494 5.747 5.747 0 000 7.5 4.67 4.67 0 003.58 1.56v-.04zm19.08 8.41a7.788 7.788 0 01-4.78-1.41 5.44 5.44 0 01-2.26-3.62h2.44c.64 1.88 2.2 2.82 4.66 2.82a4.42 4.42 0 003.33-1.32 5.163 5.163 0 001.26-3.71v-1.72a5.553 5.553 0 01-2.12 1.86 6.187 6.187 0 01-2.94.7 6.759 6.759 0 01-5.09-2.13 7.355 7.355 0 01-2-5.28 7.274 7.274 0 012.05-5.25 6.724 6.724 0 015.07-2.14 6.187 6.187 0 012.94.7 5.659 5.659 0 012.12 1.83v-2.24h2.5v13.64a6.99 6.99 0 01-2 5.38 7.213 7.213 0 01-5.18 1.89zM232.71 365a5.099 5.099 0 007.1 0 5.099 5.099 0 001.37-3.65 5.045 5.045 0 00-1.38-3.65 5.06 5.06 0 00-7.07 0 5.549 5.549 0 000 7.3h-.02zm22.4 4a7.006 7.006 0 01-5.25-2.15 7.456 7.456 0 01-2.08-5.41c-.078-2 .641-3.95 2-5.42a6.993 6.993 0 015.37-2.14 6.416 6.416 0 015.29 2.38 8.139 8.139 0 011.69 5.85h-11.82a4.555 4.555 0 001.45 3.3 4.757 4.757 0 003.38 1.32 4.372 4.372 0 004.22-2.44h2.56a6.18 6.18 0 01-2.36 3.38 7.27 7.27 0 01-4.45 1.33zm2.89-11.84a4.264 4.264 0 00-2.88-1 4.798 4.798 0 00-3 1 4.51 4.51 0 00-1.64 3h9.07a4.997 4.997 0 00-1.55-3zm16.6-9.06h2.47l7.65 10.3 7.71-10.3h2.44v20.65h-2.68V352.7l-7.44 10-7.45-10v16.05h-2.7V348.1zm31.85 20.9a6.635 6.635 0 01-5.08-2.21 8 8 0 010-10.7 6.66 6.66 0 012.3-1.657 6.657 6.657 0 012.78-.553 6.517 6.517 0 013 .71 5.644 5.644 0 012.13 1.82v-2.24h2.51v14.54h-2.51v-2.24a5.555 5.555 0 01-2.13 1.82 6.386 6.386 0 01-3 .71zm.37-2.29a4.625 4.625 0 001.942-.37 4.62 4.62 0 001.608-1.15 5.723 5.723 0 000-7.5 4.992 4.992 0 00-3.56-1.489 5.01 5.01 0 00-3.56 1.489 5.721 5.721 0 000 7.5c.446.503.997.903 1.613 1.173a4.652 4.652 0 001.957.387v-.04zm12.68 2.04v-14.54h2.5v2.24a5 5 0 014.62-2.53 5.22 5.22 0 014 1.6 5.998 5.998 0 011.51 4.27v9h-2.47v-8.58a4.236 4.236 0 00-.94-2.89 3.146 3.146 0 00-2.5-1.06 3.798 3.798 0 00-3 1.42 5.869 5.869 0 00-1.2 3.9v7.21l-2.52-.04zm23.85.25a6.64 6.64 0 01-5.07-2.21 8 8 0 010-10.7 6.651 6.651 0 015.07-2.21 6.45 6.45 0 013 .71 5.6 5.6 0 012.14 1.82v-2.24H351v14.54h-2.5v-2.24a5.513 5.513 0 01-2.14 1.82 6.325 6.325 0 01-3.01.71zm.38-2.29a4.625 4.625 0 001.942-.37 4.62 4.62 0 001.608-1.15 5.721 5.721 0 000-7.5 4.598 4.598 0 00-3.55-1.51 4.66 4.66 0 00-3.58 1.51 5.747 5.747 0 000 7.5 4.67 4.67 0 003.58 1.56v-.04zm19.08 8.41a7.81 7.81 0 01-4.78-1.41 5.48 5.48 0 01-2.26-3.62h2.45c.667 1.88 2.217 2.82 4.65 2.82a4.389 4.389 0 003.33-1.32 5.163 5.163 0 001.26-3.71v-1.72a5.561 5.561 0 01-2.12 1.86 6.187 6.187 0 01-2.94.7 6.759 6.759 0 01-5.09-2.13 7.404 7.404 0 01-2-5.28 7.271 7.271 0 012.05-5.25 6.745 6.745 0 015.07-2.14 6.187 6.187 0 012.94.7 5.659 5.659 0 012.12 1.83v-2.24H370v13.64a6.99 6.99 0 01-2 5.38 7.23 7.23 0 01-5.19 1.89zm-3.6-10.12a5.082 5.082 0 007.09 0 5.099 5.099 0 001.37-3.65 5.042 5.042 0 00-1.38-3.65 5.06 5.06 0 00-7.07 0 5.529 5.529 0 000 7.3h-.01zm22.39 4a7.006 7.006 0 01-5.25-2.15 7.456 7.456 0 01-2.08-5.41c-.078-2 .641-3.95 2-5.42a6.993 6.993 0 015.37-2.14 6.407 6.407 0 015.36 2.42 8.139 8.139 0 011.69 5.85H376.8a4.555 4.555 0 001.45 3.3 4.757 4.757 0 003.38 1.32 4.364 4.364 0 004.22-2.44h2.56a6.18 6.18 0 01-2.36 3.38 7.268 7.268 0 01-4.45 1.29zm2.85-11.88a4.22 4.22 0 00-2.88-1 4.798 4.798 0 00-3 1 4.513 4.513 0 00-1.64 3H386a4.93 4.93 0 00-1.55-2.96v-.04zm27.25 11.63v-8.55a5.002 5.002 0 00-.74-2.89 2.404 2.404 0 00-2.13-1.09 3.47 3.47 0 00-1.584.338 3.473 3.473 0 00-1.256 1.022 6.092 6.092 0 00-1.15 3.73v7.44h-2.5v-8.55a5.101 5.101 0 00-.74-2.91 2.43 2.43 0 00-2.11-1.07 3.497 3.497 0 00-2.91 1.44 6.19 6.19 0 00-1.11 3.88v7.21H393v-14.54h2.5v2.24a4.676 4.676 0 014.4-2.53 4.41 4.41 0 014.48 3.11 4.754 4.754 0 011.86-2.27 5.17 5.17 0 012.91-.84 4.616 4.616 0 013.72 1.6 6.408 6.408 0 011.37 4.3v8.93h-2.54zm13.94.25a7.006 7.006 0 01-5.25-2.15 7.456 7.456 0 01-2.08-5.41c-.078-2 .641-3.95 2-5.42a7.005 7.005 0 015.36-2.14 6.438 6.438 0 015.3 2.38 8.09 8.09 0 011.68 5.85h-11.81a4.555 4.555 0 001.45 3.3 4.735 4.735 0 003.38 1.32 4.349 4.349 0 004.21-2.44h2.56a6.161 6.161 0 01-2.35 3.38 7.286 7.286 0 01-4.45 1.33zm2.85-11.88a4.264 4.264 0 00-2.88-1 4.78 4.78 0 00-3 1 4.519 4.519 0 00-1.65 3H430a5 5 0 00-1.51-2.96v-.04zm8.51 11.63v-14.54h2.5v2.24a5 5 0 014.62-2.53 5.22 5.22 0 014 1.6 5.998 5.998 0 011.51 4.27v9h-2.47v-8.58a4.243 4.243 0 00-.93-2.89 3.165 3.165 0 00-2.5-1.06 3.758 3.758 0 00-3 1.42 5.82 5.82 0 00-1.21 3.9v7.21l-2.52-.04zm23.33.15a4.526 4.526 0 01-3.22-1.14 4.27 4.27 0 01-1.23-3.31v-7.94h-3.08v-2.3h3.08v-4h2.51v4h4.18v2.3h-4.18v7.62a2.076 2.076 0 00.542 1.882 2.072 2.072 0 001.868.588 4.53 4.53 0 001.77-.29v2.24a7.04 7.04 0 01-2.24.35zm17.52-.15v-18.09h-6.43v-2.56h15.5v2.56h-6.43v18.09h-2.64zm16.57.25a7.452 7.452 0 01-7.175-6.104 7.452 7.452 0 014.541-8.254 7.45 7.45 0 018.064 12.168 7.35 7.35 0 01-5.43 2.19zm-3.65-3.84a4.78 4.78 0 003.65 1.52 4.712 4.712 0 001.986-.362 4.706 4.706 0 001.654-1.158 5.64 5.64 0 000-7.44 4.714 4.714 0 00-3.64-1.51 4.757 4.757 0 00-3.65 1.51 5.61 5.61 0 000 7.44zm22.01 3.84a7.45 7.45 0 115.42-2.19 7.364 7.364 0 01-5.42 2.19zm-3.65-3.84a5.125 5.125 0 005.612 1.124 5.125 5.125 0 001.668-1.124 5.64 5.64 0 000-7.44 5.144 5.144 0 00-5.611-1.118 5.134 5.134 0 00-1.669 1.118 5.61 5.61 0 000 7.44zm15.54 3.59v-21.81h2.5v21.81h-2.5z" fill="#2D2D2D"/><path d="M47.25 324.65c-13.547 0-24.807-4.487-33.78-13.46C4.497 302.217.007 291.153 0 278c0-13.12 4.49-24.17 13.47-33.15 8.98-8.98 20.24-13.47 33.78-13.47a45.687 45.687 0 0127.63 9A41.208 41.208 0 0191 263.68H71a21.403 21.403 0 00-9.34-10.55 27.898 27.898 0 00-14.42-3.93c-8.46 0-15.36 2.75-20.7 8.25s-8.007 12.36-8 20.58c0 8.22 2.667 15.08 8 20.58 5.333 5.5 12.233 8.253 20.7 8.26a27.893 27.893 0 0014.42-3.94A21.383 21.383 0 0071 292.39h20a41.161 41.161 0 01-16.07 23.3 45.613 45.613 0 01-27.68 8.96zm101.88-9.72a33.897 33.897 0 01-47.25 0 33.204 33.204 0 01-7.236-36.27 33.204 33.204 0 017.236-10.79 33.721 33.721 0 0147.25 0 33.203 33.203 0 010 47.06zm-23.63-6.67a14.843 14.843 0 0011.25-4.76 18.57 18.57 0 000-24.26 15.785 15.785 0 00-17.44-3.529 15.765 15.765 0 00-5.17 3.529 18.57 18.57 0 000 24.26 15.003 15.003 0 0011.36 4.76zm39.64 14.87v-63.52h17.4v7.24c3.9-5.76 9.957-8.64 18.17-8.64 7.62 0 13.62 2.52 18 7.56 4.38 5.04 6.56 11.753 6.54 20.14v37.22h-17.4v-34.3c0-4.667-.973-8.287-2.92-10.86a9.75 9.75 0 00-8.26-3.88 12.739 12.739 0 00-10.22 4.58c-2.587 3.04-3.88 7.527-3.88 13.46v31h-17.43zm75.71 0v-48.27H228v-15.25h12.83v-8.25c0-7.54 2.287-13.47 6.86-17.79 4.573-4.32 10.373-6.48 17.4-6.48a38.19 38.19 0 0111.05 1.4v15.37a20.24 20.24 0 00-7.11-1.14c-3.807 0-6.56.823-8.26 2.47-1.7 1.647-2.547 4.42-2.54 8.32v6.1h17.91v15.25h-17.89v48.27h-17.4zm54.24-73.93a10.689 10.689 0 01-7.75-3.24 10.899 10.899 0 010-15.63 11.076 11.076 0 0110.012-3.057 11.066 11.066 0 018.854 11.993 11.067 11.067 0 01-11.116 9.934zm-8.64 73.93v-63.52h17.4v63.52h-17.4zm52.34 1.39c-8.127 0-14.86-2.03-20.2-6.09-5.34-4.06-8.177-9.227-8.51-15.5h18.17a8.307 8.307 0 003.55 6.16 12.888 12.888 0 007.5 2.1c5.5 0 8.25-1.697 8.25-5.09a4.485 4.485 0 00-1.84-3.87 19.791 19.791 0 00-6.16-2.48l-11.94-3.05c-5.42-1.433-9.463-3.867-12.13-7.3a19.55 19.55 0 01-4-12.38 16.256 16.256 0 016.92-13.53c4.613-3.52 10.817-5.28 18.61-5.28 7.113 0 13.04 1.8 17.78 5.4a19.579 19.579 0 017.88 14.67h-17.53c-.76-4.307-3.553-6.463-8.38-6.47a10.234 10.234 0 00-5.47 1.27 4.002 4.002 0 00-2 3.55c0 2.8 2.413 4.75 7.24 5.85l11.18 3c6.18 1.52 10.67 3.91 13.47 7.17 2.8 3.26 4.197 7.433 4.19 12.52a16.408 16.408 0 01-1.911 7.957 16.409 16.409 0 01-5.519 6.043c-4.98 3.573-11.363 5.357-19.15 5.35zm62.11 0c-9.573 0-17.533-3.197-23.88-9.59a33.906 33.906 0 010-47.12c6.353-6.4 14.313-9.6 23.88-9.6 8.473 0 15.567 2.373 21.28 7.12a33.084 33.084 0 0111.24 18.54h-18c-2.8-6.6-7.63-9.9-14.49-9.9a14.94 14.94 0 00-11.43 4.76c-3 3.18-4.5 7.393-4.5 12.64 0 5.247 1.49 9.457 4.47 12.63a15.009 15.009 0 0011.43 4.76c6.86 0 11.69-3.303 14.49-9.91h18a33.07 33.07 0 01-11.24 18.55c-5.687 4.747-12.77 7.12-21.25 7.12zm90.83-9.59a33.897 33.897 0 01-47.25 0 33.163 33.163 0 01-9.791-23.53 33.163 33.163 0 019.791-23.53 33.721 33.721 0 0147.25 0 33.203 33.203 0 010 47.06zm-23.63-6.67a14.803 14.803 0 0011.24-4.76 18.57 18.57 0 000-24.26 14.81 14.81 0 00-11.24-4.77 14.99 14.99 0 00-11.37 4.77 18.57 18.57 0 000 24.26 15 15 0 0011.37 4.76zm39.64 14.87v-63.52h17.4v10.16a16.005 16.005 0 016-7.81 16.434 16.434 0 019.72-3.11 20.29 20.29 0 015.84.76v17.66a25.007 25.007 0 00-7.87-1.4 12.312 12.312 0 00-10 4.51c-2.5 3.007-3.75 7.137-3.75 12.39v30.36h-17.34zm70.75 1.39c-9.74 0-17.72-3.133-23.94-9.4-6.22-6.267-9.333-14.227-9.34-23.88 0-9.48 3.153-17.357 9.46-23.63s14.307-9.407 24-9.4c9.74 0 17.827 3.333 24.26 10s9.397 15.747 8.89 27.24h-49.59a14.619 14.619 0 005 10c2.96 2.667 7.023 4 12.19 4a18.068 18.068 0 008.32-1.85 10.84 10.84 0 005.15-5.14H611a28.51 28.51 0 01-11.69 15.94 35.62 35.62 0 01-20.82 6.12zm-.38-52.21a15.718 15.718 0 00-10 3.12 14.598 14.598 0 00-5.27 8.57h29.85a14.15 14.15 0 00-5.53-8.83 15.655 15.655 0 00-9.05-2.86zM633.29 252a12.515 12.515 0 01-15.805 1.488 12.517 12.517 0 01-4.559-15.206 12.517 12.517 0 0114.016-7.453A12.52 12.52 0 01637 243.11a12.107 12.107 0 01-3.71 8.89zm-8.9.83a9.726 9.726 0 009.586-7.794 9.732 9.732 0 00-17.619-7.352 9.727 9.727 0 001.203 12.296 9.355 9.355 0 006.83 2.89v-.04zm-4.25-3.33v-12.71h5a3.835 3.835 0 012.89 1.09 3.766 3.766 0 011.06 2.76 3.25 3.25 0 01-2.5 3.26l4.53 5.64h-3.43l-4.26-5.26H623v5.26l-2.86-.04zm2.88-7.7h1.82c.359.006.711-.107 1-.32a1.176 1.176 0 00.4-.885 1.184 1.184 0 00-.4-.885 1.636 1.636 0 00-1-.31H623l.02 2.4z" fill="#2851BA"/><path d="M227 182.35a91.18 91.18 0 1173.19-145.52h-62.45a55.027 55.027 0 00-38.909 93.934 55.027 55.027 0 0038.909 16.116h61.42A90.99 90.99 0 01227 182.35z" fill="#444"/><path d="M478.6 137.15l5.55-10.27 9.58-20.53a28.131 28.131 0 00-2.23-27.73l-6.44-9.47a28.139 28.139 0 00-23.27-12.32h-224a35.024 35.024 0 00-24.766 59.791 35.022 35.022 0 0024.766 10.259H452l7.73 11.27a11.083 11.083 0 009.715 4.776 11.082 11.082 0 009.155-5.776z" fill="#2851BA"/><path d="M461.33 85.92H237.24a5.35 5.35 0 100 10.7h224.09a5.35 5.35 0 100-10.7z" fill="#fff"/><path d="M380.12 96.48l4.37 6.75a4.81 4.81 0 008.07 0l5.71-8.79-4-2.33-14.15 4.37z" fill="#fff"/></svg>